<svg width="24" height="23" viewBox="0 0 24 23" fill="none" xmlns="http://www.w3.org/2000/svg">
<path d="M11 1.9165H9C4 1.9165 2 3.83317 2 8.62484V14.3748C2 19.1665 4 21.0832 9 21.0832H15C20 21.0832 22 19.1665 22 14.3748V12.4582" stroke="#292D32" stroke-width="1.5" stroke-linecap="round" stroke-linejoin="round"/>
<path d="M16.0399 2.89404L8.15988 10.4457C7.85988 10.7332 7.55988 11.2986 7.49988 11.7107L7.06988 14.5953C6.90988 15.6399 7.67988 16.3682 8.76988 16.2245L11.7799 15.8124C12.1999 15.7549 12.7899 15.4674 13.0999 15.1799L20.9799 7.62821C22.3399 6.32488 22.9799 4.81071 20.9799 2.89404C18.9799 0.977376 17.3999 1.59071 16.0399 2.89404Z" stroke="#292D32" stroke-width="1.5" stroke-miterlimit="10" stroke-linecap="round" stroke-linejoin="round"/>
<path d="M14.9102 3.97705C15.5802 6.26747 17.4502 8.05955 19.8502 8.71122" stroke="#292D32" stroke-width="1.5" stroke-miterlimit="10" stroke-linecap="round" stroke-linejoin="round"/>
</svg>
